<svg xmlns="http://www.w3.org/2000/svg" xmlns:xlink="http://www.w3.org/1999/xlink" width="80" zoomAndPan="magnify" viewBox="0 0 60 30.000001" height="40" preserveAspectRatio="xMidYMid meet" version="1.0"><defs><g/><clipPath id="470cdee4b3"><path d="M 23 0 L 33 0 L 33 21 L 23 21 Z M 23 0 " clip-rule="nonzero"/></clipPath><clipPath id="27a4e04a5f"><path d="M 19.105469 6.292969 L 29.324219 -0.046875 L 38.378906 14.550781 L 28.160156 20.890625 Z M 19.105469 6.292969 " clip-rule="nonzero"/></clipPath><clipPath id="3884dd7d4e"><path d="M 19.105469 6.292969 L 29.324219 -0.046875 L 38.378906 14.550781 L 28.160156 20.890625 Z M 19.105469 6.292969 " clip-rule="nonzero"/></clipPath><clipPath id="133e04656b"><path d="M 19.105469 6.292969 L 29.324219 -0.046875 L 38.378906 14.550781 L 28.160156 20.890625 Z M 19.105469 6.292969 " clip-rule="nonzero"/></clipPath><clipPath id="19ed399a30"><rect x="0" width="43" y="0" height="29"/></clipPath></defs><g transform="matrix(1, 0, 0, 1, 9, 0.000000000000005692)"><g clip-path="url(#19ed399a30)"><g fill="#000000" fill-opacity="1"><g transform="translate(0.185712, 13.743637)"><g><path d="M 7.3125 -9.453125 C 7.789062 -9.453125 8.226562 -9.351562 8.625 -9.15625 C 9.019531 -8.96875 9.332031 -8.691406 9.5625 -8.328125 C 9.800781 -7.972656 9.921875 -7.578125 9.921875 -7.140625 C 9.921875 -5.972656 9.394531 -5.238281 8.34375 -4.9375 L 8.34375 -4.875 C 9.539062 -4.601562 10.140625 -3.816406 10.140625 -2.515625 C 10.140625 -2.023438 10.019531 -1.585938 9.78125 -1.203125 C 9.539062 -0.816406 9.207031 -0.519531 8.78125 -0.3125 C 8.363281 -0.101562 7.898438 0 7.390625 0 L 1.015625 0 L 1.015625 -9.453125 Z M 4.0625 -5.78125 L 6.140625 -5.78125 C 6.347656 -5.78125 6.515625 -5.847656 6.640625 -5.984375 C 6.773438 -6.128906 6.84375 -6.304688 6.84375 -6.515625 L 6.84375 -6.65625 C 6.84375 -6.851562 6.773438 -7.023438 6.640625 -7.171875 C 6.503906 -7.316406 6.335938 -7.390625 6.140625 -7.390625 L 4.0625 -7.390625 Z M 4.0625 -2.203125 L 6.359375 -2.203125 C 6.566406 -2.203125 6.734375 -2.269531 6.859375 -2.40625 C 6.992188 -2.550781 7.0625 -2.726562 7.0625 -2.9375 L 7.0625 -3.078125 C 7.0625 -3.285156 6.992188 -3.460938 6.859375 -3.609375 C 6.734375 -3.753906 6.566406 -3.828125 6.359375 -3.828125 L 4.0625 -3.828125 Z M 4.0625 -2.203125 "/></g></g></g><g fill="#000000" fill-opacity="1"><g transform="translate(10.190347, 13.743637)"><g><path d="M 1.015625 -9.453125 L 4.0625 -9.453125 L 4.0625 -2.421875 L 8.90625 -2.421875 L 8.90625 0 L 1.015625 0 Z M 1.015625 -9.453125 "/></g></g></g><g fill="#000000" fill-opacity="1"><g transform="translate(18.669555, 13.743637)"><g><path d="M 1.15625 0 L 1.15625 -9.453125 L 4.1875 -9.453125 L 4.1875 0 Z M 1.15625 0 "/></g></g></g><g fill="#000000" fill-opacity="1"><g transform="translate(23.336058, 13.743637)"><g/></g></g><g fill="#000000" fill-opacity="1"><g transform="translate(27.225235, 13.743637)"><g/></g></g><g fill="#000000" fill-opacity="1"><g transform="translate(31.119943, 13.743637)"><g><path d="M 5.109375 -9.453125 C 8.421875 -9.453125 10.078125 -7.878906 10.078125 -4.734375 C 10.078125 -1.578125 8.421875 0 5.109375 0 L 1.015625 0 L 1.015625 -9.453125 Z M 4.0625 -2.265625 L 5.0625 -2.265625 C 6.332031 -2.265625 6.96875 -2.945312 6.96875 -4.3125 L 6.96875 -5.140625 C 6.96875 -6.503906 6.332031 -7.1875 5.0625 -7.1875 L 4.0625 -7.1875 Z M 4.0625 -2.265625 "/></g></g></g><g fill="#000000" fill-opacity="1"><g transform="translate(1.406977, 24.909485)"><g><path d="M 4.984375 -9.625 C 6.203125 -9.625 7.195312 -9.378906 7.96875 -8.890625 C 8.75 -8.398438 9.148438 -7.671875 9.171875 -6.703125 L 9.171875 -6.546875 L 6.328125 -6.546875 L 6.328125 -6.59375 C 6.328125 -6.875 6.222656 -7.101562 6.015625 -7.28125 C 5.816406 -7.46875 5.507812 -7.5625 5.09375 -7.5625 C 4.695312 -7.5625 4.390625 -7.5 4.171875 -7.375 C 3.953125 -7.257812 3.84375 -7.113281 3.84375 -6.9375 C 3.84375 -6.695312 3.988281 -6.515625 4.28125 -6.390625 C 4.582031 -6.273438 5.054688 -6.148438 5.703125 -6.015625 C 6.460938 -5.859375 7.085938 -5.695312 7.578125 -5.53125 C 8.066406 -5.363281 8.492188 -5.085938 8.859375 -4.703125 C 9.234375 -4.316406 9.425781 -3.796875 9.4375 -3.140625 C 9.4375 -2.015625 9.054688 -1.179688 8.296875 -0.640625 C 7.535156 -0.0976562 6.523438 0.171875 5.265625 0.171875 C 3.785156 0.171875 2.632812 -0.0703125 1.8125 -0.5625 C 1 -1.0625 0.59375 -1.941406 0.59375 -3.203125 L 3.46875 -3.203125 C 3.46875 -2.722656 3.585938 -2.398438 3.828125 -2.234375 C 4.078125 -2.078125 4.460938 -2 4.984375 -2 C 5.367188 -2 5.6875 -2.039062 5.9375 -2.125 C 6.195312 -2.207031 6.328125 -2.378906 6.328125 -2.640625 C 6.328125 -2.867188 6.1875 -3.039062 5.90625 -3.15625 C 5.625 -3.269531 5.164062 -3.390625 4.53125 -3.515625 C 3.757812 -3.679688 3.125 -3.851562 2.625 -4.03125 C 2.125 -4.207031 1.6875 -4.503906 1.3125 -4.921875 C 0.9375 -5.335938 0.75 -5.894531 0.75 -6.59375 C 0.75 -7.632812 1.148438 -8.398438 1.953125 -8.890625 C 2.753906 -9.378906 3.765625 -9.625 4.984375 -9.625 Z M 4.984375 -9.625 "/></g></g></g><g fill="#000000" fill-opacity="1"><g transform="translate(10.642017, 24.909485)"><g><path d="M 6.328125 -9.453125 C 6.910156 -9.453125 7.429688 -9.316406 7.890625 -9.046875 C 8.347656 -8.785156 8.703125 -8.414062 8.953125 -7.9375 C 9.210938 -7.46875 9.34375 -6.941406 9.34375 -6.359375 L 9.34375 -6.171875 C 9.34375 -5.585938 9.210938 -5.054688 8.953125 -4.578125 C 8.703125 -4.097656 8.347656 -3.722656 7.890625 -3.453125 C 7.429688 -3.179688 6.910156 -3.046875 6.328125 -3.046875 L 4.0625 -3.046875 L 4.0625 0 L 1.015625 0 L 1.015625 -9.453125 Z M 4.0625 -5.265625 L 5.3125 -5.265625 C 5.625 -5.265625 5.859375 -5.347656 6.015625 -5.515625 C 6.179688 -5.679688 6.265625 -5.90625 6.265625 -6.1875 L 6.265625 -6.296875 C 6.265625 -6.585938 6.179688 -6.8125 6.015625 -6.96875 C 5.859375 -7.132812 5.625 -7.21875 5.3125 -7.21875 L 4.0625 -7.21875 Z M 4.0625 -5.265625 "/></g></g></g><g fill="#000000" fill-opacity="1"><g transform="translate(19.877058, 24.909485)"><g><path d="M 5.71875 -9.625 C 7.351562 -9.625 8.613281 -9.207031 9.5 -8.375 C 10.382812 -7.539062 10.828125 -6.328125 10.828125 -4.734375 C 10.828125 -3.140625 10.382812 -1.921875 9.5 -1.078125 C 8.613281 -0.242188 7.351562 0.171875 5.71875 0.171875 C 4.082031 0.171875 2.820312 -0.242188 1.9375 -1.078125 C 1.0625 -1.910156 0.625 -3.128906 0.625 -4.734375 C 0.625 -6.335938 1.0625 -7.550781 1.9375 -8.375 C 2.820312 -9.207031 4.082031 -9.625 5.71875 -9.625 Z M 5.71875 -7.359375 C 5.070312 -7.359375 4.578125 -7.160156 4.234375 -6.765625 C 3.890625 -6.367188 3.71875 -5.835938 3.71875 -5.171875 L 3.71875 -4.296875 C 3.71875 -3.617188 3.890625 -3.082031 4.234375 -2.6875 C 4.578125 -2.300781 5.070312 -2.109375 5.71875 -2.109375 C 6.375 -2.109375 6.875 -2.300781 7.21875 -2.6875 C 7.5625 -3.082031 7.734375 -3.617188 7.734375 -4.296875 L 7.734375 -5.171875 C 7.734375 -5.835938 7.5625 -6.367188 7.21875 -6.765625 C 6.875 -7.160156 6.375 -7.359375 5.71875 -7.359375 Z M 5.71875 -7.359375 "/></g></g></g><g fill="#000000" fill-opacity="1"><g transform="translate(30.637539, 24.909485)"><g><path d="M 6.46875 -7.046875 L 6.46875 0 L 3.421875 0 L 3.421875 -7.046875 L 0.3125 -7.046875 L 0.3125 -9.453125 L 9.5625 -9.453125 L 9.5625 -7.046875 Z M 6.46875 -7.046875 "/></g></g></g><g clip-path="url(#470cdee4b3)"><g clip-path="url(#27a4e04a5f)"><g clip-path="url(#3884dd7d4e)"><g clip-path="url(#133e04656b)"><path stroke-linecap="round" transform="matrix(0.0532322, -0.0330214, 0.0321112, 0.0517648, -27.642321, 26.512361)" fill-opacity="1" fill="#ffdd09" fill-rule="evenodd" stroke-linejoin="round" d="M 884.732063 149.481422 L 823.019789 237.795258 L 903.235116 263.082276 L 806.498414 402.402176 L 993.950487 232.887136 L 901.110948 207.847746 L 968.345546 124.490434 Z M 884.732063 149.481422 " stroke="#ffdd09" stroke-width="4.17" stroke-opacity="1" stroke-miterlimit="1.5"/></g></g></g></g></g></g></svg>