<?xml version="1.0" encoding="UTF-8"?>
<svg id="Layer_2" data-name="Layer 2" xmlns="http://www.w3.org/2000/svg" viewBox="0 0 1273.38 805.48">
  <defs>
    <style>
      .cls-1 {
        fill: #fcd421;
      }

      .cls-2 {
        fill: #fcee21;
      }

      .cls-3, .cls-4 {
        stroke: #000;
      }

      .cls-4 {
        stroke-width: 6px;
      }
    </style>
  </defs>
  <g id="Layer_3" data-name="Layer 3">
    <path d="M236.72,241.73c34.63-13.9,51.96-39.36,51.96-76.41,0-28.5-12.24-50.85-36.7-67.06-24.48-16.21-62.92-24.31-115.35-24.31H2.71v367.61h35.14c7.72-6.86,16.56-12.73,26.5-17.62,20.65-10.15,44.96-15.23,72.92-15.23,18.74,0,37.09,2.77,55.05,8.28,11.22,3.46,21.04,7.64,29.47,12.55h.01c13.37-4.11,25.26-9.27,35.66-15.49,30.66-18.35,45.99-46.4,45.99-84.16,0-49.16-22.24-78.55-66.73-88.16ZM108.99,147.15h35.75c29.86,0,44.8,12.29,44.8,36.87,0,10.69-3.98,19.23-11.92,25.65-7.94,6.41-18.27,9.61-30.98,9.61h-37.65v-72.13ZM186.2,355.54c-8.58,7.13-20.81,10.68-36.7,10.68h-40.99v-84.42h40.99c15.89,0,28.12,3.83,36.7,11.49,8.58,7.66,12.87,18.43,12.87,32.33,0,12.82-4.29,22.8-12.87,29.92Z"/>
    <path d="M426.45,357.14V73.95h-102.95v342.24h88.77c49.95,0,88.55,8.46,115.81,25.37h9.9l4.76-84.42h-116.29Z"/>
    <path d="M567.51,73.95v367.61h107.72V73.95h-107.72Z"/>
    <path d="M1254.7,160.51c-12.45-27.07-31.91-48.27-58.35-63.59-26.45-15.31-60.67-22.97-102.65-22.97h-100.34v342.78h204.16c11.42-6.73,21.53-14.84,30.31-24.32,30.37-32.77,45.55-78.55,45.55-137.33,0-35.97-6.23-67.5-18.68-94.57ZM1162.97,322.14c-10.92,17.28-27.57,25.92-49.96,25.92h-26.87v-180.61h26.87c23.23,0,40.09,7.94,50.59,23.78,10.49,15.86,15.74,36.79,15.74,62.79,0,28.14-5.46,50.85-16.37,68.12Z"/>
    <path d="M238.79,613.89c-7.31-13.17-16.68-23.86-28.12-32.06-11.44-8.19-23.68-14.77-36.7-19.76-13.03-4.99-25.26-9.44-36.7-13.36s-20.82-8.02-28.12-12.29c-7.31-4.28-10.96-9.8-10.96-16.57,0-7.12,3.49-12.82,10.48-17.1,6.99-4.27,17.16-6.41,30.51-6.41,11.43,0,23.59,1.7,36.46,5.08,12.87,3.39,27.4,8.82,43.61,16.3l16.2-78.55c-4.05-3.47-8.6-6.68-13.65-9.63h-.01c-26.07,8.02-57.79,12.02-95.16,12.02H37.85c-8.34,7.4-15.39,15.96-21.16,25.66C5.56,485.92,0,508.1,0,533.75c0,20.3,3.65,37.13,10.97,50.49,7.3,13.36,16.75,24.04,28.35,32.06,11.6,8.01,23.91,14.43,36.94,19.23,13.03,4.81,25.34,9.01,36.94,12.56,11.59,3.57,21.05,7.4,28.36,11.49,7.3,4.1,10.96,9.71,10.96,16.83,0,7.84-3.26,14.08-9.77,18.7-6.52,4.64-16.13,6.95-28.84,6.95-13.66,0-28.52-1.69-44.56-5.08-16.05-3.38-33.29-10.59-51.71-21.64L.48,762.44c14.3,9.27,31.77,16.65,52.43,22.17,20.65,5.52,40.99,8.28,61,8.28,42.58,0,75.86-11.22,99.86-33.66,23.98-22.44,35.98-54.32,35.98-95.64,0-19.95-3.66-36.51-10.96-49.7Z"/>
    <path d="M534.52,445.85c-2.07-1.49-4.22-2.93-6.44-4.29h-204.58v-25.37h-22.28v368.15h105.33v-125.56h24.79c29.23,0,54.64-4.89,76.25-14.7,21.61-9.79,38.37-24.04,50.29-42.74,11.91-18.7,17.87-41.41,17.87-68.13,0-38.47-13.75-67.59-41.23-87.36ZM466.13,572.75c-9.22,7.84-22.25,11.76-39.08,11.76h-20.5v-90.84h21.45c16.84,0,29.71,3.66,38.61,10.95,8.89,7.31,13.34,18.26,13.34,32.87,0,15.67-4.61,27.43-13.82,35.26Z"/>
    <path d="M1197.52,416.73c-28.06,16.56-64.07,24.83-108.02,24.83h-96.14v-24.83h-2v84.42h73.87v283.19h111.05v-283.19h73.88v-84.42h-52.64Z"/>
    <g>
      <path class="cls-4" d="M939.96,590.16c-2.32-19.76-8.36-38.37-17.42-55.1-11.24-20.78-27.13-38.65-46.26-52.2-.17-.12-.34-.24-.51-.36-24.68-17.34-54.7-27.51-87.09-27.51-14.36,0-28.25,2-41.42,5.74-13.62,3.86-26.47,9.58-38.25,16.87-12.55,7.76-23.89,17.3-33.67,28.27-6.64,7.43-12.56,15.51-17.66,24.14-13.55,22.91-21.33,49.67-21.33,78.27,0,9.43.85,18.66,2.47,27.62,2.33,12.88,6.25,25.2,11.57,36.74,11.39,24.75,29.15,45.92,51.16,61.39,7.5,5.27,15.49,9.89,23.9,13.75,19.26,8.85,40.67,13.79,63.23,13.79s43.1-4.74,62.05-13.25c3.13-1.41,6.21-2.92,9.23-4.53,10.86-5.8,20.94-12.88,30.04-21.06h.01c16.52-14.81,29.8-33.19,38.67-53.93,7.93-18.57,12.33-39.03,12.33-60.52,0-6.13-.36-12.18-1.05-18.12ZM788.68,562.61c25.06,0,45.38,20.45,45.38,45.67s-20.32,45.67-45.38,45.67-45.39-20.45-45.39-45.67,20.32-45.67,45.39-45.67Z"/>
      <path class="cls-3" d="M891.24,659.01c50.93,12.85,68.52-185.14,68.52-185.14,0,0,3.44,175.76-48.88,233.76-52.32,58-70.57-61.47-19.64-48.62Z"/>
      <path class="cls-3" d="M812.77,493.09c1.55-52.82-194.4-27.63-194.4-27.63,0,0,169.85-41.08,237.37-2.1,67.52,38.98-44.52,82.55-42.98,29.73Z"/>
      <path class="cls-3" d="M682.03,567.83c-51.68-9.37-55.99,189.36-55.99,189.36,0,0-15.18-175.13,33.15-236.54,48.32-61.41,74.52,56.55,22.84,47.18Z"/>
      <path class="cls-3" d="M780.75,723.15c4.02,52.68,196.21,6.78,196.21,6.78,0,0-164.58,58.93-235.82,27.36-71.24-31.57,35.59-86.82,39.61-34.14Z"/>
      <path class="cls-3" d="M875.97,700.31c31.19,23.99,101.49-106.71,101.49-106.71,0,0-49.33,121.69-102.3,145.93-52.98,24.24-30.38-63.22.81-39.23Z"/>
      <path class="cls-3" d="M883.7,523.49c29.3-26.29-84.95-120.45-84.95-120.45,0,0,109.43,71.74,123.08,128.67,13.65,56.93-67.43,18.07-38.13-8.22Z"/>
      <path class="cls-3" d="M707.58,514.22c-26.72-28.94-117.93,87.94-117.93,87.94,0,0,69.03-111.57,125.31-126.47s19.34,67.47-7.38,38.53Z"/>
      <path class="cls-3" d="M687.72,680.82c-30.47,24.91,79.36,124.25,79.36,124.25,0,0-106.04-76.72-117.07-134.22-11.03-57.5,68.18-14.94,37.71,9.97Z"/>
    </g>
    <polygon class="cls-2" points="881.98 0 817.19 110.52 679.95 344.62 664.86 370.36 689.03 361.78 689.04 361.79 827.51 312.64 795.23 475.58 792.02 491.81 786.48 519.78 783.37 535.53 783.05 537.1 777.81 563.6 817.5 495.72 824.13 484.38 853.69 433.82 1003.27 178 819.31 236.62 864.49 66.04 881.98 0"/>
    <polygon class="cls-1" points="777.81 563.6 978.87 198.2 790.37 273.91 881.98 0 819.31 236.62 1003.27 178 777.81 563.6"/>
  </g>
</svg>