<?xml version="1.0" encoding="UTF-8"?>
<svg id="Layer_2" data-name="Layer 2" xmlns="http://www.w3.org/2000/svg" viewBox="0 0 1248.22 805.48">
  <defs>
    <style>
      .cls-1 {
        stroke-miterlimit: 10;
      }

      .cls-1, .cls-2, .cls-3 {
        fill: #fff;
        stroke: #fff;
      }

      .cls-2 {
        stroke-width: 6px;
      }

      .cls-4 {
        fill: #fcd421;
      }

      .cls-5 {
        fill: #fcee21;
      }
    </style>
  </defs>
  <g id="Layer_3" data-name="Layer 3">
    <path class="cls-1" d="M235.66,241.53c34.62-13.95,51.94-39.51,51.94-76.71,0-28.6-12.23-51.04-36.69-67.32-24.46-16.26-62.89-24.4-115.3-24.4H1.72v369.05h12.07c1.06-2.1,2.2-4.15,3.39-6.17,11.11-18.78,26.99-33.26,47.64-43.45s44.95-15.29,72.9-15.29c18.74,0,37.09,2.78,55.04,8.32,17.94,5.54,32.31,12.96,43.12,22.26l-3.77,18.35c8.84-3.34,16.93-7.23,24.28-11.65,30.65-18.41,45.98-46.57,45.98-84.48,0-49.35-22.24-78.85-66.71-88.51ZM107.97,146.59h35.74c29.85,0,44.78,12.33,44.78,37.01,0,10.73-3.97,19.31-11.91,25.75-7.94,6.43-18.27,9.65-30.97,9.65h-37.64v-72.41ZM185.16,355.79c-8.58,7.16-20.81,10.73-36.69,10.73h-40.98v-84.76h40.98c15.88,0,28.11,3.85,36.69,11.54,8.58,7.69,12.86,18.5,12.86,32.45,0,12.87-4.28,22.89-12.86,30.04Z"/>
    <path class="cls-1" d="M424.35,357.4V73.1h-102.92v311.92h111.02c43.95,0,79.11,6.57,105.49,19.72l2.66-47.34h-116.25Z"/>
    <path class="cls-1" d="M557.75,73.1v344.01c9.25,7.2,16.82,15.54,22.7,25.04h84.99V73.1h-107.69Z"/>
    <path class="cls-1" d="M1230.12,160c-11.73-27.18-30.04-48.46-54.95-63.84-24.91-15.37-57.13-23.06-96.66-23.06h-94.49v312.46h226.7c24.66-32.28,37-75.82,37-130.62,0-36.11-5.87-67.76-17.6-94.94ZM1143.74,322.26c-10.28,17.35-25.96,26.02-47.05,26.02h-25.3v-181.31h25.3c21.88,0,37.76,7.96,47.64,23.87,9.89,15.92,14.83,36.93,14.83,63.03,0,28.25-5.14,51.05-15.42,68.39Z"/>
    <path class="cls-1" d="M239.21,583.22c-7.31-13.22-16.68-23.95-28.11-32.18-11.44-8.22-23.67-14.83-36.69-19.85-13.03-5-25.25-9.47-36.69-13.41-11.43-3.93-20.8-8.04-28.11-12.34-7.31-4.29-10.96-9.83-10.96-16.62,0-7.15,3.49-12.88,10.49-17.17,6.98-4.29,17.15-6.44,30.49-6.44,11.43,0,23.58,1.71,36.45,5.1,12.86,3.4,27.4,8.85,43.6,16.36l12.43-60.5c-28.02,10.66-63.52,15.98-106.51,15.98H13.79c-8.87,17.42-13.29,37.63-13.29,60.61,0,20.39,3.65,37.28,10.96,50.69,7.3,13.41,16.75,24.14,28.35,32.19,11.59,8.04,23.9,14.48,36.93,19.31,13.02,4.83,25.32,9.03,36.92,12.6,11.59,3.58,21.04,7.43,28.35,11.54,7.3,4.11,10.96,9.74,10.96,16.89,0,7.87-3.26,14.14-9.77,18.78-6.51,4.65-16.12,6.97-28.82,6.97-13.66,0-28.52-1.69-44.55-5.09-16.05-3.4-33.28-10.64-51.7-21.73L.98,732.35c14.29,9.3,31.76,16.72,52.41,22.26,20.64,5.54,40.98,8.31,60.99,8.31,42.56,0,75.83-11.26,99.82-33.79,23.98-22.53,35.97-54.53,35.97-96.02,0-20.02-3.66-36.65-10.96-49.89Z"/>
    <path class="cls-1" d="M580.45,442.15h-22.7v-25.04c-1.01-.79-2.04-1.56-3.09-2.32-5.11-3.69-10.68-7.05-16.72-10.05l-2.1,37.41h-214.41v312.46h105.3v-126.06h24.77c29.22,0,54.63-4.91,76.24-14.75,21.6-9.83,38.35-24.14,50.27-42.91,11.91-18.78,17.86-41.58,17.86-68.4,0-23.63-5.14-43.74-15.42-60.34ZM486.29,542.19c-9.22,7.87-22.24,11.8-39.07,11.8h-20.49v-91.19h21.44c16.83,0,29.7,3.67,38.59,11,8.89,7.33,13.34,18.33,13.34,32.99,0,15.74-4.61,27.54-13.81,35.4Z"/>
    <path class="cls-1" d="M1210.72,385.56c-1.89,2.48-3.86,4.89-5.9,7.24-28.6,32.91-72.02,49.35-130.27,49.35h-90.53v28.16h73.85v284.3h111.02v-284.3h73.85v-84.75h-32.02Z"/>
    <g>
      <path class="cls-2" d="M939.37,590.16h0c-2.32-19.77-8.36-38.37-17.42-55.1-11.24-20.78-27.13-38.65-46.26-52.2-.17-.12-.34-.24-.51-.36-12.82-9.01-27.09-16.08-42.38-20.8-1-.31-2.01-.61-3.02-.89-11.22-3.22-22.97-5.16-35.09-5.67-2.19-.1-4.39-.15-6.6-.15-14.36,0-28.25,2-41.42,5.74-13.62,3.86-26.47,9.58-38.25,16.87h-.01c-12.55,7.77-23.88,17.3-33.66,28.27-6.64,7.43-12.56,15.51-17.66,24.14-13.55,22.91-21.33,49.67-21.33,78.27,0,9.43.85,18.66,2.47,27.62,2.33,12.88,6.25,25.2,11.57,36.74,11.39,24.75,29.15,45.92,51.16,61.39,7.5,5.27,15.49,9.89,23.9,13.75,19.26,8.85,40.67,13.79,63.23,13.79s43.1-4.74,62.05-13.25c.01,0,.02,0,.03-.01,3.13-1.4,6.18-2.91,9.2-4.52t.02-.01c10.86-5.79,20.92-12.87,30.02-21.05.01,0,.02,0,.03-.01,16.52-14.82,29.78-33.18,38.65-53.92h0c7.93-18.58,12.33-39.03,12.33-60.52,0-6.13-.36-12.18-1.05-18.12ZM788.09,562.61c25.06,0,45.38,20.45,45.38,45.67s-20.32,45.67-45.38,45.67-45.39-20.45-45.39-45.67,20.32-45.67,45.39-45.67Z"/>
      <path class="cls-3" d="M890.65,659.01c50.93,12.85,68.52-185.14,68.52-185.14,0,0,3.44,175.76-48.88,233.76-52.32,58-70.57-61.47-19.64-48.62Z"/>
      <path class="cls-3" d="M812.18,493.09c1.55-52.82-194.4-27.63-194.4-27.63,0,0,169.85-41.08,237.37-2.1s-44.52,82.55-42.98,29.73Z"/>
      <path class="cls-3" d="M681.45,567.83c-51.68-9.37-55.99,189.36-55.99,189.36,0,0-15.18-175.13,33.15-236.54,48.32-61.41,74.52,56.55,22.84,47.18Z"/>
      <path class="cls-3" d="M780.16,723.15c4.02,52.68,196.21,6.78,196.21,6.78,0,0-164.58,58.93-235.82,27.36-71.24-31.57,35.59-86.82,39.61-34.14Z"/>
      <path class="cls-3" d="M875.38,700.31c31.19,23.99,101.49-106.71,101.49-106.71,0,0-49.33,121.69-102.3,145.93-52.98,24.24-30.38-63.22.81-39.23Z"/>
      <path class="cls-3" d="M883.11,523.49c29.3-26.29-84.95-120.45-84.95-120.45,0,0,109.43,71.74,123.08,128.67,13.65,56.93-67.43,18.07-38.13-8.22Z"/>
      <path class="cls-3" d="M706.99,514.22c-26.72-28.94-117.93,87.94-117.93,87.94,0,0,69.03-111.57,125.31-126.47,56.28-14.9,19.34,67.47-7.38,38.53Z"/>
      <path class="cls-3" d="M687.13,680.82c-30.47,24.91,79.36,124.25,79.36,124.25,0,0-106.04-76.72-117.07-134.22-11.03-57.5,68.18-14.94,37.71,9.97Z"/>
    </g>
    <polygon class="cls-5" points="877.39 0 812.6 110.52 675.36 344.62 660.27 370.36 684.44 361.78 684.45 361.79 822.92 312.64 790.64 475.58 787.43 491.81 781.89 519.78 778.78 535.53 778.46 537.1 773.22 563.6 812.91 495.72 819.54 484.38 849.1 433.82 998.68 178 814.72 236.62 859.9 66.04 877.39 0"/>
    <polygon class="cls-4" points="773.22 563.6 974.28 198.2 785.78 273.91 877.39 0 814.72 236.62 998.68 178 773.22 563.6"/>
  </g>
</svg>