<?xml version="1.0" encoding="UTF-8"?>
<svg id="Layer_2" data-name="Layer 2" xmlns="http://www.w3.org/2000/svg" viewBox="0 0 404.58 377.98">
  <defs>
    <style>
      .cls-1 {
        fill: none;
        stroke-linecap: round;
        stroke-width: 4px;
      }

      .cls-1, .cls-2 {
        stroke: #fff;
      }

      .cls-2 {
        fill: #fff;
      }
    </style>
  </defs>
  <g id="Layer_3" data-name="Layer 3">
    <g>
      <path class="cls-2" d="M353.47,133.12s0-.03-.01-.04c-1.59-4.31-3.38-8.53-5.33-12.65h0c-21.49-45.44-63.57-79.23-114.18-89.32-.01-.01-.02-.01-.03-.01-1.66-.33-3.29-.63-4.97-.91-8.7-1.45-17.65-2.21-26.76-2.21-39.86,0-76.32,14.44-104.48,38.38-17.81,15.16-32.31,34.11-42.19,55.62h-.01v.05c-1,2.18-1.97,4.34-2.87,6.58,0,.01-.01.03-.01.04-3.68,9.06-6.56,18.53-8.56,28.32,0,.03-.01.06-.02.09-.41,2.02-.78,4.05-1.1,6.1,0,.01-.01.01-.01.01,0,.01.01.02.01.02h0s0,.03,0,.03c0,.01-.01.02-.01.02,0,.01.01.01.01.02-.01.02-.01.03-.02.05v.06c-1.4,8.45-2.11,17.13-2.11,25.97,0,27.6,6.94,53.58,19.14,76.3h0c.93,1.74,1.91,3.44,2.89,5.13.01.02.02.03.03.05.25.43.5.85.76,1.27,15.38,25.72,37.72,46.78,64.4,60.61.01.01.02.02.03.01,18.31,9.49,38.68,15.58,60.25,17.41h.03c4.44.38,8.9.58,13.44.59h.4c52.63,0,99.37-25.21,128.82-64.2,0,0,.01,0,.01,0,2.49-3.27,4.84-6.66,7.07-10.12.02-.02.03-.04.04-.07,16.08-25.1,25.41-54.94,25.41-86.97,0-19.77-3.56-38.72-10.07-56.22ZM236.93,210.86c-7.2,11.62-20.07,19.35-34.74,19.35s-28.37-8.24-35.44-20.49c-15.06-8.92-24.01-20.38-24.01-20.38,0,0,8.97-11.43,23.99-20.33h0c7.06-12.27,20.3-20.53,35.46-20.53s27.77,7.87,34.93,19.65c16.13,9.11,25.11,21.53,25.11,21.53,0,0-9.05,12.26-25.3,21.2Z"/>
      <path class="cls-2" d="M202.19,158.65c-13.78,0-25.86,4.66-35.46,10.35,7.06-12.26,20.3-20.52,35.46-20.52s27.77,7.87,34.93,19.65c-9.36-5.3-21.12-9.48-34.93-9.48Z"/>
      <path class="cls-2" d="M236.93,210.86c-7.2,11.62-20.07,19.35-34.74,19.35s-28.37-8.24-35.44-20.49c9.59,5.67,21.64,10.31,35.44,10.31s25.42-4.04,34.74-9.17Z"/>
      <path class="cls-2" d="M132.97,161.34c-74.68-12.02-104.65,33.53-83.33-19.93C63.46,71.72,112.33,25.49,186.04,5.19c81.78-22.52,157.07,43.43,157.07,43.43,0,0-53.85-22.45-99.32-20.56-46.27,1.92-97.92,50.97-108.07,82.2-8.82,27.14,1.38,40.54-2.76,51.08Z"/>
      <path class="cls-2" d="M246.06,140.5c38.65-65.02,7.33-109.65,49.2-70.15,59.71,38.49,84.71,100.95,76.46,176.96-9.15,84.33-98.19,130.07-98.19,130.07,0,0,40.69-41.81,55.67-84.78,15.24-43.73-11.36-109.8-36.66-130.73-21.99-18.19-38.2-13.64-46.48-21.36Z"/>
      <path class="cls-2" d="M182.19,129.07c-39.14-64.72-93.26-58.12-38.7-76.44,62.08-34.53,128.95-27.17,192.11,15.92,70.07,47.8,68.48,147.88,68.48,147.88,0,0-17.71-55.59-48.56-89.04-31.39-34.04-102.21-41.7-132.59-29.25-26.41,10.83-30.02,27.27-40.74,30.94Z"/>
      <path class="cls-2" d="M268.66,202.4c75.64-.37,97.75-50.21,85.47,6.02-2.23,71-42.86,124.62-112.26,156.71-76.99,35.61-162.06-17.13-162.06-17.13,0,0,56.8,13.33,101.35,4.02,45.33-9.47,88.25-66.32,93.15-98.78,4.26-28.22-8-39.77-5.64-50.84Z"/>
      <path class="cls-2" d="M164.33,241.2c-26.96,70.67,11.53,109.28-36.48,77.53-65.41-27.72-100.73-84.97-105.6-161.27C16.85,72.81,96.75,12.51,96.75,12.51c0,0-32.94,48.16-40.35,93.06-7.54,45.69,29.98,106.24,58.48,122.53,24.78,14.16,39.97,6.9,49.45,13.1Z"/>
      <path class="cls-2" d="M228.98,249.95c44.47,61.18,97.84,50.03,45.02,72.9-58.94,39.66-126.19,37.97-192.77.38C7.37,281.53.5,181.67.5,181.67c0,0,22.35,53.89,55.92,84.62s105.37,32.91,134.58,17.93c25.4-13.02,27.61-29.71,37.98-34.27Z"/>
      <path class="cls-1" d="M155.91,189.34c1.83,2.23,3.8,4.3,5.88,6.19,22.61,20.68,58.87,21.9,80.68.7,2.14-2.07,4.14-4.37,5.98-6.89"/>
    </g>
  </g>
</svg>