<?xml version="1.0" encoding="UTF-8"?>
<svg id="Layer_2" data-name="Layer 2" xmlns="http://www.w3.org/2000/svg" viewBox="0 0 1248.22 790.03">
  <defs>
    <style>
      .cls-1 {
        stroke-miterlimit: 10;
      }

      .cls-1, .cls-2, .cls-3 {
        stroke: #000;
      }

      .cls-4 {
        fill: #fcd421;
      }

      .cls-5 {
        fill: #fcee21;
      }

      .cls-3 {
        fill: none;
        stroke-linecap: round;
        stroke-width: 4px;
      }
    </style>
  </defs>
  <g id="Layer_3" data-name="Layer 3">
    <path class="cls-1" d="M235.66,241.53c34.62-13.95,51.94-39.51,51.94-76.71,0-28.6-12.23-51.04-36.69-67.32-24.46-16.26-62.89-24.4-115.3-24.4H1.72v369.05h12.07c1.06-2.1,2.2-4.15,3.39-6.17,11.11-18.78,26.99-33.26,47.64-43.45,20.65-10.19,44.95-15.29,72.9-15.29,18.74,0,37.09,2.78,55.04,8.32,17.94,5.54,32.31,12.96,43.12,22.26l-3.77,18.35c8.84-3.34,16.93-7.23,24.28-11.65,30.65-18.41,45.98-46.57,45.98-84.48,0-49.35-22.24-78.85-66.71-88.51ZM107.97,146.59h35.74c29.85,0,44.78,12.33,44.78,37.01,0,10.73-3.97,19.31-11.91,25.75-7.94,6.43-18.27,9.65-30.97,9.65h-37.64v-72.41ZM185.16,355.79c-8.58,7.16-20.81,10.73-36.69,10.73h-40.98v-84.76h40.98c15.88,0,28.11,3.85,36.69,11.54,8.58,7.69,12.86,18.5,12.86,32.45,0,12.87-4.28,22.89-12.86,30.04Z"/>
    <path class="cls-1" d="M424.35,357.4V73.1h-102.92v311.92h111.02c43.95,0,79.11,6.57,105.49,19.72l2.66-47.34h-116.25Z"/>
    <path class="cls-1" d="M557.75,73.1v344.01c9.25,7.2,16.82,15.54,22.7,25.04h84.99V73.1h-107.69Z"/>
    <path class="cls-1" d="M1230.12,160c-11.73-27.18-30.04-48.46-54.95-63.84-24.91-15.37-57.13-23.06-96.66-23.06h-94.49v312.46h226.7c24.66-32.28,37-75.82,37-130.62,0-36.11-5.87-67.76-17.6-94.94ZM1143.74,322.26c-10.28,17.35-25.96,26.02-47.05,26.02h-25.3v-181.31h25.3c21.88,0,37.76,7.96,47.64,23.87,9.89,15.92,14.83,36.93,14.83,63.03,0,28.25-5.14,51.05-15.42,68.39Z"/>
    <path class="cls-1" d="M239.21,583.22c-7.31-13.22-16.68-23.95-28.11-32.18-11.44-8.22-23.67-14.83-36.69-19.85-13.03-5-25.25-9.47-36.69-13.41-11.43-3.93-20.8-8.04-28.11-12.34-7.31-4.29-10.96-9.83-10.96-16.62,0-7.15,3.49-12.88,10.49-17.17,6.98-4.29,17.15-6.44,30.49-6.44,11.43,0,23.58,1.71,36.45,5.1,12.86,3.4,27.4,8.85,43.6,16.36l12.43-60.5c-28.02,10.66-63.52,15.98-106.51,15.98H13.79c-8.87,17.42-13.29,37.63-13.29,60.61,0,20.39,3.65,37.28,10.96,50.69,7.3,13.41,16.75,24.14,28.35,32.19,11.59,8.04,23.9,14.48,36.93,19.31,13.02,4.83,25.32,9.03,36.92,12.6,11.59,3.58,21.04,7.43,28.35,11.54,7.3,4.11,10.96,9.74,10.96,16.89,0,7.87-3.26,14.14-9.77,18.78-6.51,4.65-16.12,6.97-28.82,6.97-13.66,0-28.52-1.69-44.55-5.09-16.05-3.4-33.28-10.64-51.7-21.73L.98,732.35c14.29,9.3,31.76,16.72,52.41,22.26,20.64,5.54,40.98,8.31,60.99,8.31,42.56,0,75.83-11.26,99.82-33.79,23.98-22.53,35.97-54.53,35.97-96.02,0-20.02-3.66-36.65-10.96-49.89Z"/>
    <path class="cls-1" d="M580.45,442.15h-22.7v-25.04c-1.01-.79-2.04-1.56-3.09-2.32-5.11-3.69-10.68-7.05-16.72-10.05l-2.1,37.41h-214.41v312.46h105.3v-126.06h24.77c29.22,0,54.63-4.91,76.24-14.75,21.6-9.83,38.35-24.14,50.27-42.91,11.91-18.78,17.86-41.58,17.86-68.4,0-23.63-5.14-43.74-15.42-60.34ZM486.29,542.19c-9.22,7.87-22.24,11.8-39.07,11.8h-20.49v-91.19h21.44c16.83,0,29.7,3.67,38.59,11,8.89,7.33,13.34,18.33,13.34,32.99,0,15.74-4.61,27.54-13.81,35.4Z"/>
    <path class="cls-1" d="M1210.72,385.56c-1.89,2.48-3.86,4.89-5.9,7.24-28.6,32.91-72.02,49.35-130.27,49.35h-90.53v28.16h73.85v284.3h111.02v-284.3h73.85v-84.75h-32.02Z"/>
    <g>
      <path class="cls-2" d="M948.84,545.17s0-.03-.01-.04c-1.59-4.31-3.38-8.53-5.33-12.65h0c-21.49-45.44-63.57-79.23-114.18-89.32-.01-.01-.02-.01-.03-.01-1.66-.33-3.29-.63-4.97-.91-8.7-1.45-17.65-2.21-26.76-2.21-39.86,0-76.32,14.44-104.48,38.38-17.81,15.16-32.31,34.11-42.19,55.62h-.01v.05c-1,2.18-1.97,4.34-2.87,6.58,0,.01-.01.03-.01.04-3.68,9.06-6.56,18.53-8.56,28.32,0,.03-.01.06-.02.09-.41,2.02-.78,4.05-1.1,6.1,0,.01-.01.01-.01.01,0,.01.01.02.01.02h0s0,.03,0,.03c0,.01-.01.02-.01.02,0,.01.01.01.01.02-.01.02-.01.03-.02.05v.06c-1.4,8.45-2.11,17.13-2.11,25.97,0,27.6,6.94,53.58,19.14,76.3h0c.93,1.74,1.91,3.44,2.89,5.13.01.02.02.03.03.05.25.43.5.85.76,1.27,15.38,25.72,37.72,46.78,64.4,60.61.01.01.02.02.03.01,18.31,9.49,38.68,15.58,60.25,17.41h.03c4.44.38,8.9.58,13.44.59h.4c52.63,0,99.37-25.21,128.82-64.2,0,0,.01,0,.01,0,2.49-3.27,4.84-6.66,7.07-10.12.02-.02.03-.04.04-.07,16.08-25.1,25.41-54.94,25.41-86.97,0-19.77-3.56-38.72-10.07-56.22ZM832.3,622.91c-7.2,11.62-20.07,19.35-34.74,19.35s-28.37-8.24-35.44-20.49c-15.06-8.92-24.01-20.38-24.01-20.38,0,0,8.97-11.43,23.99-20.33h0c7.06-12.27,20.3-20.53,35.46-20.53s27.77,7.87,34.93,19.65c16.13,9.11,25.11,21.53,25.11,21.53,0,0-9.05,12.26-25.3,21.2Z"/>
      <path class="cls-2" d="M797.56,570.7c-13.78,0-25.86,4.66-35.46,10.35,7.06-12.26,20.3-20.52,35.46-20.52s27.77,7.87,34.93,19.65c-9.36-5.3-21.12-9.48-34.93-9.48Z"/>
      <path class="cls-2" d="M832.3,622.91c-7.2,11.62-20.07,19.35-34.74,19.35s-28.37-8.24-35.44-20.49c9.59,5.67,21.64,10.31,35.44,10.31s25.42-4.04,34.74-9.17Z"/>
      <path class="cls-2" d="M728.34,573.39c-74.68-12.02-104.65,33.53-83.33-19.93,13.82-69.68,62.69-115.92,136.4-136.22,81.78-22.52,157.07,43.43,157.07,43.43,0,0-53.85-22.45-99.32-20.56-46.27,1.92-97.92,50.97-108.07,82.2-8.82,27.14,1.38,40.54-2.76,51.08Z"/>
      <path class="cls-2" d="M841.43,552.55c38.65-65.02,7.33-109.65,49.2-70.15,59.71,38.49,84.71,100.95,76.46,176.96-9.15,84.33-98.19,130.07-98.19,130.07,0,0,40.69-41.81,55.67-84.78,15.24-43.73-11.36-109.8-36.66-130.73-21.99-18.19-38.2-13.64-46.48-21.36Z"/>
      <path class="cls-2" d="M777.56,541.12c-39.14-64.72-93.26-58.12-38.7-76.44,62.08-34.53,128.95-27.17,192.11,15.92,70.07,47.8,68.48,147.88,68.48,147.88,0,0-17.71-55.59-48.56-89.04-31.39-34.04-102.21-41.7-132.59-29.25-26.41,10.83-30.02,27.27-40.74,30.94Z"/>
      <path class="cls-2" d="M864.03,614.45c75.64-.37,97.75-50.21,85.47,6.02-2.23,71-42.86,124.62-112.26,156.71-76.99,35.61-162.06-17.13-162.06-17.13,0,0,56.8,13.33,101.35,4.02,45.33-9.47,88.25-66.32,93.15-98.78,4.26-28.22-8-39.77-5.64-50.84Z"/>
      <path class="cls-2" d="M759.7,653.25c-26.96,70.67,11.53,109.28-36.48,77.53-65.41-27.72-100.73-84.97-105.6-161.27-5.4-84.65,74.49-144.94,74.49-144.94,0,0-32.94,48.16-40.35,93.06-7.54,45.69,29.98,106.24,58.48,122.53,24.78,14.16,39.97,6.9,49.45,13.1Z"/>
      <path class="cls-2" d="M824.35,662c44.47,61.18,97.84,50.03,45.02,72.9-58.94,39.66-126.19,37.97-192.77.38-73.86-41.7-80.73-141.56-80.73-141.56,0,0,22.35,53.89,55.92,84.62,34.16,31.27,105.37,32.91,134.58,17.93,25.4-13.02,27.61-29.71,37.98-34.27Z"/>
      <path class="cls-3" d="M751.28,601.39c1.83,2.23,3.8,4.3,5.88,6.19,22.61,20.68,58.87,21.9,80.68.7,2.14-2.07,4.14-4.37,5.98-6.89"/>
    </g>
    <polygon class="cls-5" points="877.39 0 812.6 110.52 675.36 344.62 660.27 370.36 684.44 361.78 684.45 361.79 822.92 312.64 790.64 475.58 787.43 491.81 781.89 519.78 778.78 535.53 778.46 537.1 773.22 563.6 812.91 495.72 819.54 484.38 849.1 433.82 998.68 178 814.72 236.62 859.9 66.04 877.39 0"/>
    <polygon class="cls-4" points="773.22 563.6 974.28 198.2 785.78 273.91 877.39 0 814.72 236.62 998.68 178 773.22 563.6"/>
  </g>
</svg>